Scene rip from 2007, Unrated/Director's Cut.

Format                         : Matroska
Format version                 : Version 1
File size                      : 4.37 GiB
Duration                       : 1h 49mn
Overall bit rate               : 5 731 Kbps
Encoded date                   : UTC 2007-08-21 16:12:24
Writing application            : mkvmerge v2.0.2 ('You're My Flame') built on Feb 21 2007 23:40:55
Writing library                : libebml v0.7.7 + libmatroska v0.8.1

Video
ID                             : 1
Format                         : AVC
Format/Info                    : Advanced Video Codec
Format profile                 : High@L5.1
Format settings, CABAC         : Yes
Format settings, ReFrames      : 8 frames
Codec ID                       : V_MPEG4/ISO/AVC
Duration                       : 1h 49mn
Bit rate                       : 5 088 Kbps
Width                          : 1 280 pixels
Height                         : 544 pixels
Display aspect ratio           : 2.35:1
Frame rate mode                : Constant
Frame rate                     : 23.976 fps
Color space                    : YUV
Chroma subsampling             : 4:2:0
Bit depth                      : 8 bits
Scan type                      : Progressive
Bits/(Pixel*Frame)             : 0.305
Stream size                    : 3.80 GiB (87%)
Writing library                : x264 core 55 svn-656
Encoding settings              : cabac=1 / ref=5 / deblock=1:-3:-2 / analyse=0x1:0 / me=umh / subme=7 / brdo=1 / mixed_ref=1 / me_range=16 / chroma_me=1 / trellis=1 / 8x8dct=0 / cqm=2 / deadzone=21,11 / chroma_qp_offset=0 / threads=2 / nr=0 / decimate=1 / mbaff=0 / bframes=3 / b_pyramid=1 / b_adapt=1 / b_bias=0 / direct=1 / wpredb=1 / bime=1 / keyint=250 / keyint_min=25 / scenecut=40(pre) / rc=2pass / bitrate=5088 / ratetol=1.0 / rceq='blurCplx^(1-qComp)' / qcomp=0.60 / qpmin=10 / qpmax=51 / qpstep=4 / cplxblur=20.0 / qblur=0.5 / ip_ratio=1.40 / pb_ratio=1.30
Language                       : English
Default                        : Yes
Forced                         : No

Audio
ID                             : 2
Format                         : AC-3
Format/Info                    : Audio Coding 3
Mode extension                 : CM (complete main)
Format settings, Endianness    : Big
Codec ID                       : A_AC3
Duration                       : 1h 49mn
Bit rate mode                  : Constant
Bit rate                       : 640 Kbps
Channel(s)                     : 6 channels
Channel positions              : Front: L C R, Side: L R, LFE
Sampling rate                  : 48.0 KHz
Bit depth                      : 16 bits
Compression mode               : Lossy
Stream size                    : 500 MiB (11%)
Language                       : English
Default                        : Yes
Forced                         : No

